<svg width="17" height="16" fill="none" xmlns="http://www.w3.org/2000/svg"><path d="M15.723 4a5.713 5.713 0 01-1.64.46 2.866 2.866 0 001.254-1.587 5.76 5.76 0 01-1.814.7 2.817 2.817 0 00-2.106-.906 2.857 2.857 0 00-2.847 2.86c0 .226.027.446.073.653A8.13 8.13 0 012.75 3.193a2.83 2.83 0 00-.387 1.434c0 .993.5 1.873 1.274 2.373-.474 0-.914-.133-1.3-.333v.02c0 1.386.986 2.546 2.293 2.806-.42.115-.86.131-1.287.047a2.853 2.853 0 002.667 1.987 5.68 5.68 0 01-3.553 1.226 5.73 5.73 0 01-.68-.04A8.097 8.097 0 006.163 14c5.254 0 8.14-4.36 8.14-8.14 0-.127 0-.247-.006-.373.56-.4 1.04-.907 1.426-1.487z" fill="#fff"/></svg>