<svg width="24" height="24" fill="none" xmlns="http://www.w3.org/2000/svg"><path d="M5.347 14.504l-.832 3.118-3.04.065A11.987 11.987 0 01.05 12c0-1.99.482-3.866 1.336-5.519l2.707.499L5.28 9.682A7.16 7.16 0 004.897 12c0 .88.159 1.725.45 2.504z" fill="#FBBB00"/><path d="M23.74 9.758a12.068 12.068 0 01-.053 4.747 12.005 12.005 0 01-4.206 6.853l-3.41-.175-.483-3.025a7.144 7.144 0 003.064-3.653h-6.39V9.758h11.479z" fill="#518EF8"/><path d="M19.48 21.357v.001A11.868 11.868 0 0112 24c-4.55 0-8.507-2.554-10.525-6.313l3.872-3.184c1.01 2.705 3.607 4.63 6.653 4.63 1.31 0 2.536-.355 3.588-.975l3.892 3.2z" fill="#28B446"/><path d="M19.627 2.763l-3.87 3.182A7.041 7.041 0 0012 4.867c-3.115 0-5.761 2.013-6.72 4.815l-3.892-3.2h-.001C3.376 2.63 7.382 0 12 0c2.9 0 5.558 1.037 7.627 2.763z" fill="#F14336"/></svg>