<svg width="114" height="100" fill="none" xmlns="http://www.w3.org/2000/svg"><path d="M112.401 37.207h-32.74c-.562 0-1.022.46-1.022 1.023v6.138c0 .563.46 1.023 1.023 1.023H112.4c.563 0 1.023-.46 1.023-1.023V38.23c0-.563-.46-1.023-1.023-1.023zM95.264 54.599H79.662c-.563 0-1.023.46-1.023 1.024v6.138c0 .563.46 1.023 1.023 1.023h15.602c.563 0 1.023-.46 1.023-1.023v-6.139c0-.562-.46-1.023-1.023-1.023zM52.588 25.761H47.05a1.43 1.43 0 00-1.432 1.432v31.716c0 .46.217.883.588 1.151L65.25 73.95c.64.46 1.535.332 1.995-.307l3.287-4.489v-.013a1.43 1.43 0 00-.32-1.995L54.007 55.431V27.193a1.42 1.42 0 00-1.42-1.432z" fill="#E85D04"/><path d="M94.472 70.7H87.08c-.717 0-1.394.372-1.778.986a41.055 41.055 0 01-5.691 7.123 40.562 40.562 0 01-12.955 8.735 40.522 40.522 0 01-15.859 3.197c-5.511 0-10.844-1.074-15.858-3.197a40.564 40.564 0 01-12.955-8.735 40.566 40.566 0 01-8.735-12.955c-2.123-5.014-3.197-10.346-3.197-15.858a40.478 40.478 0 013.197-15.859 40.564 40.564 0 018.735-12.955 40.563 40.563 0 0112.955-8.734C39.953 10.325 45.3 9.25 50.797 9.25c5.513 0 10.846 1.075 15.859 3.197a40.56 40.56 0 0112.955 8.735 41.054 41.054 0 015.69 7.124 2.103 2.103 0 001.778.984h7.393a1.17 1.17 0 001.048-1.7C87.182 11.002 70.275.22 51.4.004 23.762-.341.806 22.282.755 49.894.704 77.555 23.122 100 50.785 100c19.12 0 36.307-10.82 44.735-27.598.397-.78-.179-1.701-1.048-1.701z" fill="#E85D04"/></svg>