<svg width="26" height="21" fill="none" xmlns="http://www.w3.org/2000/svg"><path d="M24.195.5h-22.5a1.25 1.25 0 00-1.25 1.25v17.5a1.25 1.25 0 001.25 1.25h22.5a1.25 1.25 0 001.25-1.25V1.75A1.25 1.25 0 0024.195.5zm-1.25 13.75a3.75 3.75 0 00-3.75 3.75h-12.5a3.75 3.75 0 00-3.75-3.75v-7.5A3.75 3.75 0 006.694 3h12.5a3.75 3.75 0 003.75 3.75v7.5z" fill="#E85D04"/><path d="M12.944 5.5c-2.757 0-5 2.242-5 5s2.243 5 5 5c2.758 0 5-2.242 5-5s-2.242-5-5-5zm0 7.5a2.503 2.503 0 01-2.5-2.5c0-1.379 1.122-2.5 2.5-2.5 1.38 0 2.5 1.121 2.5 2.5s-1.12 2.5-2.5 2.5z" fill="#E85D04"/></svg>