<svg width="15" height="12" fill="none" xmlns="http://www.w3.org/2000/svg"><path d="M14.25 0H.75A.75.75 0 000 .75v10.5a.75.75 0 00.75.75h13.5a.75.75 0 00.75-.75V.75a.75.75 0 00-.75-.75zm-.75 8.25a2.25 2.25 0 00-2.25 2.25h-7.5A2.25 2.25 0 001.5 8.25v-4.5A2.25 2.25 0 003.75 1.5h7.5a2.25 2.25 0 002.25 2.25v4.5z" fill="#787B8E"/><path d="M7.5 3c-1.654 0-3 1.346-3 3s1.346 3 3 3c1.655 0 3-1.346 3-3s-1.345-3-3-3zm0 4.5C6.673 7.5 6 6.827 6 6s.673-1.5 1.5-1.5S9 5.173 9 6s-.673 1.5-1.5 1.5z" fill="#787B8E"/></svg>