<svg width="17" height="16" fill="none" xmlns="http://www.w3.org/2000/svg"><path d="M6.777 14.36c.64.193 1.286.307 1.973.307A6.667 6.667 0 102.083 8a6.674 6.674 0 004.294 6.227c-.06-.52-.12-1.38 0-1.974l.766-3.293s-.193-.387-.193-1c0-.92.573-1.607 1.227-1.607.573 0 .84.42.84.96 0 .574-.38 1.394-.574 2.18-.113.654.347 1.227 1.014 1.227 1.186 0 2.106-1.267 2.106-3.053 0-1.6-1.146-2.694-2.793-2.694-1.88 0-2.987 1.4-2.987 2.874 0 .573.187 1.153.494 1.533.06.04.06.093.04.193l-.194.727c0 .113-.073.153-.186.073C5.083 10 4.59 8.787 4.59 7.807c0-2.107 1.493-4.02 4.373-4.02 2.294 0 4.08 1.646 4.08 3.833 0 2.293-1.42 4.133-3.453 4.133-.647 0-1.28-.346-1.507-.753l-.446 1.58c-.154.573-.574 1.34-.86 1.8v-.02z" fill="#fff"/></svg>